<svg width="19" height="13" viewBox="0 0 19 13" fill="none" xmlns="http://www.w3.org/2000/svg">
<path d="M8.97147 12.9167C4.84893 12.9167 1.27548 10.615 0.0808186 7.1878L0.00012207 6.95921L0.0790643 6.73061C1.27548 3.30341 4.84893 1 8.97147 1C13.094 1 16.6657 3.30341 17.8639 6.73061L17.9446 6.95921L17.8639 7.1878C16.6657 10.615 13.0958 12.9167 8.97147 12.9167ZM1.49125 6.95921C2.5596 9.65699 5.59625 11.5207 8.97147 11.5207C12.3467 11.5207 15.3851 9.65699 16.4534 6.95921C15.3851 4.26142 12.3484 2.39601 8.97147 2.39601C5.59449 2.39601 2.5596 4.26142 1.49125 6.95921Z" fill="#0B1219"/>
<path d="M9.30758 5.30861C9.60778 5.30826 9.90133 5.39649 10.1511 5.56214C10.4009 5.72779 10.5956 5.96341 10.7108 6.23919C10.8259 6.51498 10.8562 6.81853 10.7978 7.11144C10.7395 7.40436 10.5951 7.67348 10.383 7.88475C10.1708 8.09602 9.90042 8.23996 9.60602 8.29834C9.31162 8.35672 9.00642 8.32693 8.72904 8.21274C8.45166 8.09854 8.21457 7.90508 8.04775 7.65681C7.88093 7.40855 7.79189 7.11665 7.79189 6.81804C7.79235 6.41816 7.95214 6.03476 8.23623 5.75183C8.52033 5.46891 8.90558 5.30953 9.30758 5.30861ZM9.30758 3.9126C8.72989 3.9126 8.16517 4.083 7.68484 4.40225C7.2045 4.72151 6.83013 5.17527 6.60906 5.70617C6.38798 6.23707 6.33014 6.82126 6.44284 7.38486C6.55555 7.94846 6.83373 8.46616 7.24222 8.87249C7.65071 9.27883 8.17116 9.55554 8.73775 9.66765C9.30434 9.77976 9.89163 9.72222 10.4253 9.50231C10.9591 9.28241 11.4152 8.91001 11.7362 8.43221C12.0571 7.95442 12.2284 7.39268 12.2284 6.81804C12.2287 6.43643 12.1533 6.05851 12.0066 5.7059C11.8599 5.3533 11.6447 5.03291 11.3735 4.76307C11.1022 4.49323 10.7801 4.27923 10.4256 4.13329C10.0711 3.98736 9.69122 3.91237 9.30758 3.9126V3.9126Z" fill="#0B1219"/>
</svg>
