<svg width="18" height="14" viewBox="0 0 18 14" fill="none" xmlns="http://www.w3.org/2000/svg">
<g clip-path="url(#clip0_253_958)">
<path d="M2.15312 10.0312C2.05256 10.031 1.95324 10.0087 1.86208 9.96575C1.77092 9.92284 1.69009 9.86036 1.62523 9.78266C1.01344 9.06032 0.53929 8.22964 0.226771 7.33266L0.147156 7.09466L0.22504 6.86541C1.40543 3.42841 4.931 1.11841 8.99831 1.11841C9.73005 1.11854 10.4598 1.19596 11.1756 1.34941C11.2668 1.36619 11.3537 1.40132 11.4312 1.45271C11.5087 1.50409 11.5752 1.57069 11.6268 1.64855C11.6784 1.72641 11.714 1.81394 11.7315 1.90597C11.749 1.99799 11.748 2.09263 11.7286 2.18428C11.7093 2.27592 11.6719 2.3627 11.6188 2.43947C11.5656 2.51625 11.4978 2.58145 11.4193 2.63122C11.3407 2.68098 11.2531 2.7143 11.1616 2.72919C11.0701 2.74408 10.9766 2.74025 10.8866 2.71791C10.2657 2.58522 9.63288 2.51836 8.99831 2.51841C5.66831 2.51841 2.67235 4.38391 1.61831 7.09466C1.8735 7.74486 2.23314 8.34797 2.68273 8.87966C2.76787 8.98165 2.8224 9.10613 2.83989 9.23843C2.85738 9.37072 2.83709 9.50531 2.78143 9.62633C2.72577 9.74736 2.63705 9.84976 2.52572 9.92149C2.4144 9.99322 2.28512 10.0313 2.15312 10.0312Z" fill="#0B1219"/>
<path d="M8.99823 13.0692C7.16157 13.079 5.35737 12.5797 3.78169 11.6254C3.69967 11.58 3.62759 11.5182 3.56983 11.4439C3.51206 11.3695 3.4698 11.284 3.44559 11.1927C3.42138 11.1014 3.41573 11.006 3.42897 10.9124C3.44222 10.8188 3.47409 10.7288 3.52265 10.648C3.57122 10.5672 3.63548 10.4972 3.71155 10.4422C3.78762 10.3871 3.87393 10.3483 3.96526 10.3279C4.0566 10.3076 4.15107 10.3061 4.24297 10.3237C4.33486 10.3413 4.42229 10.3775 4.49996 10.4302C5.86018 11.2503 7.41629 11.6787 8.99996 11.6692C12.33 11.6692 15.3259 9.80893 16.38 7.09468C15.801 5.68425 14.7801 4.50503 13.474 3.73817C13.3922 3.69286 13.3203 3.6313 13.2627 3.5572C13.205 3.4831 13.1627 3.39799 13.1384 3.30696C13.1141 3.21594 13.1082 3.12088 13.1211 3.0275C13.134 2.93411 13.1654 2.84433 13.2135 2.76353C13.2615 2.68272 13.3252 2.61257 13.4008 2.55729C13.4763 2.502 13.5621 2.46271 13.6531 2.44178C13.744 2.42085 13.8382 2.41871 13.9299 2.43549C14.0217 2.45227 14.1092 2.48762 14.1871 2.53942C15.8971 3.57892 17.1709 5.11542 17.7715 6.86542L17.8511 7.09468L17.7715 7.32568C16.5894 10.7609 13.0673 13.0692 8.99823 13.0692Z" fill="#0B1219"/>
<path d="M8.99774 10.7083C8.4715 10.7089 7.95166 10.5917 7.47555 10.3651C6.99945 10.1384 6.57888 9.808 6.24408 9.39751L7.31197 8.505C7.4935 8.7352 7.71863 8.92647 7.97416 9.06761C8.2297 9.20876 8.51052 9.29695 8.80017 9.32702C9.08983 9.35709 9.38251 9.32844 9.66109 9.24275C9.93966 9.15705 10.1985 9.01603 10.4225 8.82794C10.6466 8.63985 10.8312 8.40846 10.9657 8.14733C11.1002 7.8862 11.1818 7.60057 11.2058 7.30715C11.2298 7.01374 11.1956 6.71843 11.1053 6.43852C11.0151 6.15861 10.8705 5.89972 10.68 5.67701L11.7427 4.78101C12.1776 5.30862 12.4547 5.9506 12.5417 6.63175C12.6287 7.3129 12.5219 8.005 12.2339 8.62699C11.9458 9.24898 11.4884 9.77509 10.9153 10.1437C10.3421 10.5123 9.67699 10.7081 8.99774 10.7083Z" fill="#0B1219"/>
<path d="M6.11827 7.79458C5.93466 7.79458 5.75857 7.72083 5.62874 7.58955C5.49891 7.45828 5.42597 7.28023 5.42597 7.09458C5.42548 6.56415 5.54059 6.04012 5.76312 5.55978C5.98565 5.07943 6.31013 4.65457 6.71348 4.31541C7.11683 3.97624 7.58914 3.73112 8.09681 3.59746C8.60448 3.46379 9.13505 3.44489 9.65077 3.54208C9.74328 3.55521 9.8322 3.58714 9.91218 3.63594C9.99217 3.68474 10.0616 3.7494 10.1162 3.82603C10.1708 3.90266 10.2095 3.98967 10.23 4.08183C10.2505 4.17399 10.2523 4.26938 10.2353 4.36227C10.2184 4.45516 10.183 4.54362 10.1314 4.62232C10.0797 4.70102 10.0128 4.76834 9.93478 4.82022C9.85672 4.87211 9.76908 4.90748 9.67714 4.92421C9.5852 4.94094 9.49086 4.93868 9.39981 4.91758C9.26734 4.89304 9.13294 4.88074 8.99827 4.88083C8.41804 4.88175 7.86186 5.11534 7.45174 5.53035C7.04162 5.94536 6.81104 6.5079 6.81058 7.09458C6.81058 7.28023 6.73764 7.45828 6.60781 7.58955C6.47797 7.72083 6.30188 7.79458 6.11827 7.79458Z" fill="#0B1219"/>
<path d="M1.60311 13.8758C1.46002 13.8762 1.32032 13.8318 1.20321 13.7487C1.0861 13.6656 0.997346 13.5478 0.949149 13.4116C0.900952 13.2754 0.895683 13.1274 0.934066 12.988C0.972449 12.8487 1.0526 12.7247 1.16349 12.6333L15.9771 0.343051C16.0468 0.280377 16.1283 0.23258 16.2167 0.202527C16.3051 0.172474 16.3985 0.160785 16.4915 0.168161C16.5845 0.175537 16.675 0.201827 16.7577 0.245453C16.8403 0.289078 16.9134 0.34914 16.9726 0.422034C17.0317 0.494929 17.0757 0.579153 17.1018 0.669653C17.128 0.760154 17.1358 0.855064 17.1248 0.94869C17.1138 1.04232 17.0842 1.13273 17.0378 1.2145C16.9913 1.29627 16.929 1.36772 16.8546 1.42455L2.05138 13.7166C1.92521 13.8214 1.76643 13.8778 1.60311 13.8758Z" fill="#0B1219"/>
</g>
<defs>
<clipPath id="clip0_253_958">
<rect width="18" height="14" fill="white"/>
</clipPath>
</defs>
</svg>
