<svg width="215" height="84" viewBox="0 0 215 84" fill="none" xmlns="http://www.w3.org/2000/svg">
<path d="M146.937 82.5956V80.3899C146.937 80.1869 146.773 80.0223 146.571 80.0223H68.4479C68.2458 80.0223 68.0819 80.1869 68.0819 80.3899V82.5956C68.0819 82.7986 68.2458 82.9632 68.4479 82.9632H146.571C146.773 82.9632 146.937 82.7986 146.937 82.5956Z" fill="white"/>
<path d="M108.646 56.5015H106.457C106.255 56.5015 106.091 56.6661 106.091 56.8691V76.7138C106.091 76.9168 106.255 77.0814 106.457 77.0814H108.646C108.848 77.0814 109.012 76.9168 109.012 76.7138V56.8691C109.012 56.6661 108.848 56.5015 108.646 56.5015Z" fill="white"/>
<path d="M108.653 26.9957H106.45C106.252 26.9957 106.091 27.1574 106.091 27.3569V45.2345C106.091 45.434 106.252 45.5957 106.45 45.5957H108.653C108.851 45.5957 109.012 45.434 109.012 45.2345V27.3569C109.012 27.1574 108.851 26.9957 108.653 26.9957Z" fill="white"/>
<path d="M113.384 21.4364V23.6098C113.384 23.659 113.394 23.7076 113.413 23.753C113.431 23.7984 113.459 23.8396 113.493 23.8743C113.528 23.9091 113.569 23.9366 113.614 23.9554C113.659 23.9742 113.708 23.9839 113.757 23.9839H140.767C140.816 23.983 140.864 23.9919 140.908 24.0101C140.953 24.0283 140.994 24.0553 141.028 24.0896C141.062 24.1239 141.089 24.1648 141.107 24.2098C141.125 24.2548 141.134 24.303 141.133 24.3515V76.688C141.135 76.785 141.174 76.8776 141.242 76.9461C141.311 77.0147 141.403 77.054 141.499 77.0557H143.65C143.747 77.0557 143.84 77.0169 143.909 76.948C143.977 76.879 144.016 76.7855 144.016 76.688V21.4364C144.017 21.3879 144.008 21.3397 143.99 21.2947C143.972 21.2497 143.945 21.2088 143.911 21.1745C143.877 21.1402 143.836 21.1132 143.791 21.095C143.746 21.0768 143.698 21.0679 143.65 21.0688H113.757C113.708 21.0679 113.66 21.0768 113.615 21.0949C113.569 21.113 113.528 21.1399 113.494 21.1741C113.459 21.2084 113.432 21.2492 113.413 21.2942C113.394 21.3392 113.384 21.3876 113.384 21.4364Z" fill="white"/>
<path d="M129.814 26.9893H127.612C127.413 26.9893 127.252 27.151 127.252 27.3504V76.688C127.252 76.8875 127.413 77.0492 127.612 77.0492H129.814C130.013 77.0492 130.174 76.8875 130.174 76.688V27.3504C130.174 27.151 130.013 26.9893 129.814 26.9893Z" fill="white"/>
<path d="M115.946 26.9634H113.744C113.545 26.9634 113.384 27.1251 113.384 27.3246V76.6944C113.384 76.8939 113.545 77.0556 113.744 77.0556H115.946C116.145 77.0556 116.306 76.8939 116.306 76.6944V27.3246C116.306 27.1251 116.145 26.9634 115.946 26.9634Z" fill="white"/>
<path d="M101.353 26.9634H99.1503C98.9517 26.9634 98.7908 27.1251 98.7908 27.3246V76.6944C98.7908 76.8939 98.9517 77.0556 99.1503 77.0556H101.353C101.551 77.0556 101.712 76.8939 101.712 76.6944V27.3246C101.712 27.1251 101.551 26.9634 101.353 26.9634Z" fill="white"/>
<path d="M87.4201 26.9634H85.2179C85.0194 26.9634 84.8584 27.1251 84.8584 27.3246V76.7202C84.8584 76.9197 85.0194 77.0814 85.2179 77.0814H87.4201C87.6187 77.0814 87.7797 76.9197 87.7797 76.7202V27.3246C87.7797 27.1251 87.6187 26.9634 87.4201 26.9634Z" fill="white"/>
<path d="M101.346 21.0687H71.3628C71.2657 21.0687 71.1726 21.1075 71.104 21.1764C71.0354 21.2453 70.9968 21.3388 70.9968 21.4363V76.7138C70.9985 76.8108 71.0376 76.9033 71.1058 76.9719C71.1741 77.0405 71.2662 77.0797 71.3628 77.0814H73.5521C73.6487 77.0797 73.7408 77.0405 73.8091 76.9719C73.8774 76.9033 73.9165 76.8108 73.9181 76.7138V24.3772C73.9181 24.2797 73.9567 24.1862 74.0253 24.1173C74.0939 24.0484 74.187 24.0096 74.2841 24.0096H101.346C101.444 24.0079 101.537 23.9678 101.605 23.8978C101.674 23.8278 101.712 23.7337 101.712 23.6356V21.4363C101.712 21.3388 101.673 21.2453 101.605 21.1764C101.536 21.1075 101.443 21.0687 101.346 21.0687V21.0687Z" fill="white"/>
<path d="M20.1666 26.9506H3.28735C3.0819 26.9506 2.92139 27.1182 2.92139 27.4665V76.8621C2.95715 76.9283 3.01001 76.9836 3.07441 77.0222C3.13881 77.0608 3.21236 77.0813 3.28735 77.0814H5.57301C5.67007 77.0814 5.76316 77.0427 5.83179 76.9737C5.90042 76.9048 5.93897 76.8113 5.93897 76.7138V30.3816C5.93897 30.3333 5.94844 30.2855 5.96683 30.2409C5.98522 30.1963 6.01218 30.1558 6.04616 30.1217C6.08015 30.0875 6.12049 30.0605 6.16489 30.042C6.20929 30.0235 6.25688 30.014 6.30494 30.014H20.1666C20.2152 30.014 20.2633 30.0043 20.3081 29.9854C20.353 29.9665 20.3936 29.9389 20.4277 29.9041C20.4617 29.8692 20.4885 29.828 20.5066 29.7826C20.5246 29.7373 20.5334 29.6888 20.5325 29.6399V27.3182C20.5325 27.2207 20.494 27.1272 20.4254 27.0582C20.3567 26.9893 20.2636 26.9506 20.1666 26.9506V26.9506Z" fill="white"/>
<path d="M61.8607 41.7452H60.4033C60.2012 41.7452 60.0374 41.9098 60.0374 42.1128V67.4265C60.0374 67.6295 60.2012 67.7941 60.4033 67.7941H61.8607C62.0629 67.7941 62.2267 67.6295 62.2267 67.4265V42.1128C62.2267 41.9098 62.0629 41.7452 61.8607 41.7452Z" fill="white"/>
<path d="M46.8111 33.1806V79.6547C46.8119 79.7032 46.8031 79.7514 46.785 79.7964C46.7669 79.8414 46.74 79.8822 46.7058 79.9165C46.6717 79.9509 46.631 79.9779 46.5862 79.9961C46.5414 80.0142 46.4934 80.0231 46.4451 80.0223H3.28076C3.18311 80.024 3.09004 80.0641 3.02158 80.1341C2.95313 80.204 2.91478 80.2982 2.91479 80.3963V82.5956C2.91478 82.6937 2.95313 82.7878 3.02158 82.8578C3.09004 82.9278 3.18311 82.9679 3.28076 82.9696H49.3856C49.4833 82.9679 49.5764 82.9278 49.6448 82.8578C49.7133 82.7878 49.7516 82.6937 49.7516 82.5956V36.0183C49.7533 35.9213 49.7923 35.8288 49.8606 35.7602C49.9289 35.6916 50.021 35.6524 50.1176 35.6507H67.6966C67.7937 35.6507 67.8868 35.612 67.9554 35.543C68.024 35.4741 68.0626 35.3806 68.0626 35.2831V33.1806C68.0626 33.0831 68.024 32.9896 67.9554 32.9207C67.8868 32.8517 67.7937 32.813 67.6966 32.813H47.1513C47.0593 32.821 46.9736 32.863 46.9107 32.9309C46.8478 32.9989 46.8123 33.0879 46.8111 33.1806Z" fill="white"/>
<path d="M76.4028 30.1365C76.4028 29.3326 76.7208 28.5616 77.2867 27.9932C77.8526 27.4247 78.6201 27.1053 79.4204 27.1053C80.2207 27.1053 80.9883 27.4247 81.5542 27.9932C82.1201 28.5616 82.438 29.3326 82.438 30.1365H76.4028Z" fill="white"/>
<path d="M90.3416 30.1365C90.3416 29.3326 90.6595 28.5616 91.2254 27.9932C91.7913 27.4247 92.5588 27.1053 93.3591 27.1053C94.1595 27.1053 94.927 27.4247 95.4929 27.9932C96.0588 28.5616 96.3767 29.3326 96.3767 30.1365H90.3416Z" fill="white"/>
<path d="M118.777 30.1366C118.759 29.7272 118.823 29.3182 118.966 28.9343C119.109 28.5505 119.328 28.1998 119.609 27.9034C119.891 27.607 120.23 27.3711 120.605 27.2099C120.98 27.0487 121.384 26.9656 121.792 26.9656C122.2 26.9656 122.604 27.0487 122.979 27.2099C123.354 27.3711 123.692 27.607 123.974 27.9034C124.256 28.1998 124.475 28.5505 124.618 28.9343C124.761 29.3182 124.825 29.7272 124.806 30.1366H118.777Z" fill="white"/>
<path d="M132.601 30.1366C132.582 29.7272 132.646 29.3182 132.789 28.9343C132.932 28.5505 133.151 28.1998 133.433 27.9034C133.714 27.607 134.053 27.3711 134.428 27.2099C134.803 27.0487 135.207 26.9656 135.615 26.9656C136.023 26.9656 136.427 27.0487 136.802 27.2099C137.177 27.3711 137.516 27.607 137.797 27.9034C138.079 28.1998 138.298 28.5505 138.441 28.9343C138.584 29.3182 138.648 29.7272 138.629 30.1366H132.601Z" fill="white"/>
<path d="M107.503 19.7659C109.141 19.7659 110.469 18.4262 110.469 16.7734C110.469 15.1207 109.141 13.7809 107.503 13.7809C105.865 13.7809 104.537 15.1207 104.537 16.7734C104.537 18.4262 105.865 19.7659 107.503 19.7659Z" fill="white"/>
<path d="M107.432 1.03705L68.313 14.2453C68.2415 14.2687 68.1787 14.3132 68.1328 14.373C68.087 14.4329 68.0603 14.5053 68.0562 14.5807V17.7344C68.0578 17.8314 68.0969 17.924 68.1652 17.9925C68.2334 18.0611 68.3256 18.1004 68.4221 18.1021H101.34C101.437 18.1021 101.53 18.0633 101.598 17.9944C101.667 17.9254 101.705 17.8319 101.705 17.7344V15.4449C101.705 15.3474 101.667 15.2539 101.598 15.185C101.53 15.116 101.437 15.0773 101.34 15.0773H77.6868C77.5961 15.0828 77.5067 15.0542 77.4359 14.9972C77.3651 14.9401 77.3179 14.8587 77.3035 14.7687C77.2891 14.6787 77.3085 14.5865 77.358 14.51C77.4075 14.4336 77.4834 14.3783 77.5712 14.355L107.439 4.26173C107.512 4.23617 107.591 4.23617 107.664 4.26173L137.563 14.3292C137.643 14.3601 137.709 14.4175 137.752 14.4918C137.794 14.5661 137.81 14.6527 137.796 14.7373C137.783 14.8218 137.741 14.8992 137.677 14.9563C137.614 15.0135 137.533 15.0471 137.448 15.0515H113.757C113.708 15.0506 113.66 15.0595 113.615 15.0776C113.569 15.0957 113.528 15.1226 113.494 15.1569C113.459 15.1911 113.431 15.2319 113.413 15.2769C113.394 15.322 113.384 15.3703 113.384 15.4191V17.728C113.384 17.7768 113.394 17.8251 113.413 17.8702C113.431 17.9152 113.459 17.956 113.494 17.9902C113.528 18.0245 113.569 18.0514 113.615 18.0695C113.66 18.0876 113.708 18.0965 113.757 18.0956H146.571C146.62 18.0965 146.668 18.0876 146.712 18.0694C146.757 18.0512 146.798 18.0242 146.832 17.9899C146.866 17.9556 146.893 17.9147 146.911 17.8697C146.929 17.8247 146.938 17.7765 146.937 17.728V14.0712C146.937 13.9933 146.911 13.9176 146.865 13.855C146.819 13.7924 146.754 13.7462 146.68 13.7229L107.657 1.03705C107.584 1.01149 107.505 1.01149 107.432 1.03705V1.03705Z" fill="white"/>
<path d="M26.2466 10.7111L0.250398 19.566C0.177067 19.5916 0.113512 19.6395 0.068618 19.7031C0.0237239 19.7667 -0.000265741 19.8428 2.22059e-06 19.9208V23.6098C-1.22959e-05 23.7079 0.0383383 23.8021 0.106791 23.872C0.175244 23.942 0.26832 23.9822 0.365965 23.9839H49.3665C49.4635 23.9839 49.5566 24.0226 49.6252 24.0915C49.6939 24.1605 49.7324 24.254 49.7324 24.3515V26.5572C49.7308 26.6541 49.6917 26.7467 49.6234 26.8153C49.5551 26.8838 49.463 26.9231 49.3665 26.9248H32.5771C32.5288 26.9239 32.4808 26.9328 32.436 26.951C32.3912 26.9691 32.3506 26.9962 32.3164 27.0305C32.2822 27.0648 32.2553 27.1057 32.2372 27.1507C32.2192 27.1957 32.2103 27.2439 32.2112 27.2924V29.6141C32.2103 29.663 32.2191 29.7115 32.2371 29.7568C32.2552 29.8022 32.282 29.8434 32.316 29.8783C32.3501 29.9131 32.3907 29.9407 32.4356 29.9596C32.4804 29.9785 32.5285 29.9882 32.5771 29.9882L52.2877 30.0785C52.3363 30.0785 52.3845 30.0688 52.4293 30.0499C52.4741 30.031 52.5147 30.0034 52.5488 29.9686C52.5829 29.9337 52.6097 29.8924 52.6277 29.8471C52.6457 29.8018 52.6546 29.7533 52.6537 29.7044V20.0175C52.6541 19.9412 52.6308 19.8667 52.587 19.8043C52.5433 19.7419 52.4813 19.6947 52.4097 19.6692L26.4842 10.7111C26.407 10.6855 26.3237 10.6855 26.2466 10.7111V10.7111ZM6.82489 20.4367L26.253 13.9358C26.3258 13.9102 26.405 13.9102 26.4777 13.9358L46.1627 20.3851C46.2448 20.413 46.3143 20.4692 46.359 20.5437C46.4037 20.6183 46.4206 20.7063 46.4068 20.7922C46.3929 20.8781 46.3492 20.9563 46.2833 21.0128C46.2174 21.0694 46.1337 21.1006 46.0471 21.101H6.94046C6.87113 21.0842 6.8082 21.0474 6.75941 20.9952C6.71062 20.9429 6.67808 20.8775 6.6658 20.8069C6.65353 20.7364 6.66204 20.6637 6.69031 20.598C6.71857 20.5322 6.76535 20.4761 6.82489 20.4367Z" fill="white"/>
<path d="M197.023 32.813H194.833C194.631 32.813 194.468 32.9776 194.468 33.1806V76.7137C194.468 76.9168 194.631 77.0814 194.833 77.0814H197.023C197.225 77.0814 197.389 76.9168 197.389 76.7137V33.1806C197.389 32.9776 197.225 32.813 197.023 32.813Z" fill="white"/>
<path d="M194.833 26.9506H211.713C211.918 26.9506 212.085 27.1182 212.085 27.5955V76.9911C212.085 76.9266 211.918 77.0943 211.719 77.0943H209.427C209.331 77.0926 209.238 77.0534 209.17 76.9848C209.102 76.9162 209.063 76.8237 209.061 76.7267V30.4977C209.061 30.4002 209.023 30.3067 208.954 30.2378C208.885 30.1688 208.792 30.1301 208.695 30.1301H194.833C194.736 30.1284 194.643 30.0882 194.574 30.0183C194.506 29.9483 194.468 29.8541 194.468 29.756V27.3182C194.469 27.2212 194.508 27.1287 194.577 27.0601C194.645 26.9915 194.737 26.9522 194.833 26.9506V26.9506Z" fill="white"/>
<path d="M154.597 41.7452H153.139C152.937 41.7452 152.773 41.9098 152.773 42.1128V67.4265C152.773 67.6295 152.937 67.7941 153.139 67.7941H154.597C154.799 67.7941 154.963 67.6295 154.963 67.4265V42.1128C154.963 41.9098 154.799 41.7452 154.597 41.7452Z" fill="white"/>
<path d="M182.436 32.8001H180.246C180.044 32.8001 179.88 32.9647 179.88 33.1677V76.7138C179.88 76.9168 180.044 77.0814 180.246 77.0814H182.436C182.638 77.0814 182.802 76.9168 182.802 76.7138V33.1677C182.802 32.9647 182.638 32.8001 182.436 32.8001Z" fill="white"/>
<path d="M168.17 33.1806V79.6547C168.169 79.7032 168.178 79.7514 168.196 79.7964C168.214 79.8414 168.241 79.8822 168.275 79.9165C168.309 79.9509 168.35 79.9779 168.394 79.9961C168.439 80.0142 168.487 80.0231 168.535 80.0223H211.719C211.817 80.024 211.91 80.0641 211.978 80.1341C212.047 80.204 212.085 80.2982 212.085 80.3963V82.5956C212.085 82.6937 212.047 82.7878 211.978 82.8578C211.91 82.9278 211.817 82.9679 211.719 82.9696H165.646C165.549 82.9679 165.456 82.9278 165.387 82.8578C165.319 82.7878 165.28 82.6937 165.28 82.5956V36.0183C165.28 35.9208 165.242 35.8273 165.173 35.7584C165.105 35.6894 165.011 35.6507 164.914 35.6507H147.303C147.207 35.649 147.115 35.6098 147.046 35.5412C146.978 35.4726 146.939 35.3801 146.937 35.2831V33.1806C146.939 33.0836 146.978 32.9911 147.046 32.9225C147.115 32.8539 147.207 32.8146 147.303 32.813H167.804C167.9 32.8146 167.992 32.8539 168.06 32.9225C168.129 32.9911 168.168 33.0836 168.17 33.1806Z" fill="white"/>
<path d="M162.353 20.0175V29.7302C162.353 29.8283 162.391 29.9225 162.459 29.9925C162.528 30.0625 162.621 30.1026 162.719 30.1043L182.436 30.014C182.484 30.014 182.532 30.0043 182.576 29.9853C182.621 29.9664 182.661 29.9386 182.694 29.9037C182.728 29.8688 182.754 29.8274 182.772 29.7821C182.789 29.7368 182.797 29.6884 182.795 29.6399V27.3182C182.795 27.2207 182.757 27.1272 182.688 27.0582C182.619 26.9893 182.526 26.9506 182.429 26.9506H165.646C165.549 26.9506 165.456 26.9118 165.387 26.8429C165.319 26.774 165.28 26.6804 165.28 26.583V24.3773C165.279 24.3288 165.288 24.2806 165.306 24.2356C165.324 24.1906 165.351 24.1497 165.385 24.1154C165.42 24.0811 165.46 24.054 165.505 24.0359C165.55 24.0177 165.598 24.0088 165.646 24.0097H214.634C214.682 24.0097 214.731 23.9999 214.775 23.9811C214.82 23.9622 214.861 23.9345 214.895 23.8997C214.929 23.8649 214.956 23.8236 214.974 23.7783C214.992 23.7329 215.001 23.6844 215 23.6356V19.9208C215.001 19.8426 214.977 19.766 214.932 19.7022C214.887 19.6384 214.823 19.5907 214.749 19.566L188.76 10.7111C188.683 10.6855 188.599 10.6855 188.522 10.7111L162.603 19.6692C162.53 19.6936 162.467 19.7403 162.422 19.8028C162.377 19.8653 162.353 19.9404 162.353 20.0175V20.0175ZM168.844 20.4367L188.522 13.9874C188.597 13.9613 188.678 13.9613 188.753 13.9874L208.181 20.4367C208.263 20.4646 208.333 20.5208 208.378 20.5953C208.422 20.6699 208.439 20.7579 208.425 20.8438C208.412 20.9297 208.368 21.0079 208.302 21.0644C208.236 21.121 208.152 21.1522 208.066 21.1526H168.953C168.868 21.1481 168.787 21.1138 168.724 21.0558C168.661 20.9978 168.621 20.9196 168.609 20.8347C168.598 20.7499 168.616 20.6637 168.661 20.591C168.707 20.5183 168.776 20.4638 168.856 20.4367H168.844Z" fill="white"/>
<path d="M189.363 41.7452H187.906C187.704 41.7452 187.54 41.9098 187.54 42.1128V67.4136C187.54 67.6166 187.704 67.7812 187.906 67.7812H189.363C189.565 67.7812 189.729 67.6166 189.729 67.4136V42.1128C189.729 41.9098 189.565 41.7452 189.363 41.7452Z" fill="white"/>
<path d="M122.508 32.9807H121.05C120.848 32.9807 120.684 33.1453 120.684 33.3483V76.6815C120.684 76.8846 120.848 77.0492 121.05 77.0492H122.508C122.71 77.0492 122.874 76.8846 122.874 76.6815V33.3483C122.874 33.1453 122.71 32.9807 122.508 32.9807Z" fill="white"/>
<path d="M136.344 32.9807H134.886C134.684 32.9807 134.52 33.1453 134.52 33.3483V76.6815C134.52 76.8846 134.684 77.0492 134.886 77.0492H136.344C136.546 77.0492 136.71 76.8846 136.71 76.6815V33.3483C136.71 33.1453 136.546 32.9807 136.344 32.9807Z" fill="white"/>
<path d="M94.0138 32.9807H92.5564C92.3543 32.9807 92.1904 33.1453 92.1904 33.3483V76.6815C92.1904 76.8846 92.3543 77.0492 92.5564 77.0492H94.0138C94.2159 77.0492 94.3798 76.8846 94.3798 76.6815V33.3483C94.3798 33.1453 94.2159 32.9807 94.0138 32.9807Z" fill="white"/>
<path d="M80.1203 32.9807H78.6628C78.4607 32.9807 78.2969 33.1453 78.2969 33.3483V76.6815C78.2969 76.8846 78.4607 77.0492 78.6628 77.0492H80.1203C80.3224 77.0492 80.4862 76.8846 80.4862 76.6815V33.3483C80.4862 33.1453 80.3224 32.9807 80.1203 32.9807Z" fill="white"/>
<path d="M34.7602 32.8001H32.5708C32.3687 32.8001 32.2048 32.9647 32.2048 33.1677V76.7138C32.2048 76.9168 32.3687 77.0814 32.5708 77.0814H34.7602C34.9623 77.0814 35.1261 76.9168 35.1261 76.7138V33.1677C35.1261 32.9647 34.9623 32.8001 34.7602 32.8001Z" fill="white"/>
<path d="M20.173 32.8001H17.9836C17.7815 32.8001 17.6177 32.9647 17.6177 33.1677V76.7138C17.6177 76.9168 17.7815 77.0814 17.9836 77.0814H20.173C20.3751 77.0814 20.539 76.9168 20.539 76.7138V33.1677C20.539 32.9647 20.3751 32.8001 20.173 32.8001Z" fill="white"/>
<path d="M27.0939 41.7452H25.6365C25.4344 41.7452 25.2705 41.9098 25.2705 42.1128V67.4136C25.2705 67.6166 25.4344 67.7812 25.6365 67.7812H27.0939C27.296 67.7812 27.4599 67.6166 27.4599 67.4136V42.1128C27.4599 41.9098 27.296 41.7452 27.0939 41.7452Z" fill="white"/>
</svg>
